<svg width="32" height="32" viewBox="0 0 32 32" fill="none" xmlns="http://www.w3.org/2000/svg">
<g clip-path="url(#clip0_359_3207)">
<path d="M30.1985 18.3466C29.6472 16.0834 28.3064 14.085 26.4232 12.7195C24.6306 11.4198 22.4478 10.7617 20.2516 10.8527C19.2393 8.68016 17.4767 6.9635 15.2587 5.99981C15.041 5.90534 14.788 6.00508 14.6933 6.2227C14.5988 6.44036 14.6985 6.69349 14.9162 6.78808C17.0259 7.7047 18.6844 9.36687 19.5863 11.4684C19.7837 11.9283 19.9437 12.4075 20.0618 12.8926C20.0932 13.0214 20.1221 13.1539 20.1503 13.2977C20.1503 13.2978 20.1504 13.298 20.1504 13.298C20.5806 15.494 20.1758 17.7585 19.0105 19.6744C17.9088 21.4857 16.218 22.8368 14.2219 23.5095C14.1859 23.4276 14.1514 23.3449 14.1185 23.2616C14.1181 23.2606 14.1178 23.2597 14.1174 23.2587C14.0542 23.0983 13.9971 22.9352 13.9455 22.7701C13.9414 22.7568 13.9373 22.7436 13.9333 22.7303C13.9094 22.6523 13.8867 22.5738 13.8655 22.4949C13.865 22.4929 13.8645 22.491 13.864 22.489C17.6182 21.2289 19.8887 17.3199 19.0685 13.403V13.4029C19.0483 13.3062 19.0301 13.2253 19.0114 13.1484C18.8687 12.5631 18.6603 11.9958 18.3916 11.4622C18.391 11.461 18.3904 11.46 18.3899 11.4589C18.388 11.4553 18.3862 11.4519 18.3842 11.4484C17.5954 9.8895 16.2862 8.62035 14.6956 7.87388C13.9331 7.51603 13.1193 7.28578 12.2898 7.18649L15.3424 4.34914C15.4971 4.20527 15.5243 3.97027 15.4066 3.79485L15.4045 3.79185L15.4044 3.79168L13.9933 1.69014C13.9135 1.57131 13.7797 1.5 13.6366 1.5H9.06284C8.91965 1.5 8.78592 1.57131 8.70606 1.69014L7.29271 3.79497C7.17495 3.97038 7.20214 4.20538 7.35694 4.34925L10.4092 7.18638C10.0984 7.22348 9.78908 7.27882 9.48317 7.3533C5.25851 8.38252 2.65882 12.6569 3.68793 16.8816C4.11222 18.6233 5.12784 20.1819 6.54771 21.2705C7.8522 22.2706 9.44924 22.842 11.0803 22.8979C11.0881 22.9316 11.096 22.965 11.1041 22.9982C11.1232 23.0768 11.1435 23.1549 11.1644 23.2326C11.1693 23.2506 11.1745 23.2686 11.1794 23.2866C11.1965 23.3488 11.2142 23.4106 11.2324 23.4721C11.2374 23.4891 11.2426 23.506 11.2478 23.523C11.2677 23.5888 11.2882 23.6544 11.3094 23.7195C11.3131 23.7307 11.3167 23.7419 11.3204 23.7531C11.3458 23.8303 11.3719 23.907 11.3991 23.9831C9.50905 23.9927 7.64711 23.4006 6.09929 22.2841C4.37181 21.0378 3.14231 19.2101 2.63741 17.1374C2.13342 15.0686 2.38259 12.8836 3.33913 10.9848C4.28509 9.10701 5.86264 7.61617 7.78129 6.78695C7.99913 6.69276 8.09938 6.43986 8.00525 6.22202C7.91105 6.00423 7.65809 5.90381 7.44031 5.99806C5.33719 6.90708 3.60812 8.54077 2.57165 10.5982C1.52335 12.6792 1.25023 15.0738 1.80247 17.3409C2.3558 19.6121 3.70328 21.6152 5.59655 22.981C7.2769 24.1932 9.29552 24.8427 11.3475 24.8427C11.4811 24.8427 11.6148 24.8391 11.7486 24.8336C13.3616 28.2875 16.8612 30.5001 20.6515 30.5C21.4192 30.5 22.1989 30.4092 22.9771 30.2196C28.2415 28.9372 31.481 23.611 30.1985 18.3466ZM19.7448 20.1211C20.9289 18.1742 21.3958 15.8987 21.0816 13.659C22.4799 13.7456 23.8426 14.256 24.959 15.1211C26.2265 16.1033 27.0976 17.4478 27.478 19.0094C28.395 22.7737 26.0786 26.5821 22.3144 27.4991C20.4909 27.9434 18.6036 27.6509 17.0001 26.6756C16.0075 26.0719 15.1976 25.2513 14.6189 24.2812C16.7533 23.5304 18.5602 22.0688 19.7448 20.1211ZM13.6915 21.6393C13.4719 20.0754 13.7832 18.492 14.5926 17.1141C15.4395 15.6724 16.7474 14.5974 18.3087 14.0479C18.769 17.3409 16.8273 20.5333 13.6915 21.6393ZM9.29184 2.35941H13.4075L14.2416 3.60165H8.45775L9.29184 2.35941ZM8.73948 4.46106H13.9598L11.3496 6.88726L8.73948 4.46106ZM10.9186 22.029C9.53301 21.9438 8.1823 21.4408 7.07067 20.5885C5.78748 19.6047 4.90655 18.2525 4.52304 16.6781C3.60602 12.9139 5.9224 9.10536 9.68668 8.18829C11.2611 7.80472 12.8669 7.96513 14.3306 8.65201C15.5988 9.24713 16.6653 10.2152 17.3793 11.4066C15.1742 12.182 13.3299 13.7077 12.1479 15.7479C11.0382 17.6636 10.6137 19.8614 10.9186 22.029ZM22.7737 29.3846C22.0633 29.5577 21.3523 29.6405 20.6516 29.6405C17.0834 29.6402 13.7973 27.4911 12.3928 24.1666C12.3774 24.1301 12.3621 24.0938 12.3472 24.0572C12.3412 24.0424 12.3354 24.0275 12.3295 24.0127C12.3112 23.9671 12.2931 23.9213 12.2756 23.8753C12.2729 23.8685 12.2705 23.8615 12.2678 23.8546C12.2478 23.8017 12.2281 23.7486 12.2091 23.6952C12.2084 23.6935 12.2079 23.6917 12.2072 23.69C12.1867 23.6324 12.1667 23.5746 12.1473 23.5166C12.1472 23.5162 12.1471 23.5159 12.147 23.5156C12.1273 23.4567 12.1083 23.3977 12.0899 23.3385C12.0886 23.3343 12.0874 23.3301 12.0861 23.3259C12.069 23.2707 12.0524 23.2155 12.0364 23.1601C12.0312 23.142 12.0263 23.1237 12.0212 23.1055C12.0093 23.0635 11.9975 23.0216 11.9863 22.9795C11.97 22.9183 11.9542 22.8567 11.9392 22.7948C11.9239 22.7321 11.9095 22.6693 11.8957 22.6064C11.8903 22.5819 11.885 22.5569 11.8797 22.5319C11.8737 22.5033 11.8679 22.4747 11.8621 22.4461C11.8583 22.4273 11.8545 22.4088 11.8507 22.3896C11.8502 22.387 11.8494 22.3845 11.8489 22.382C11.4337 20.2531 11.7984 18.0659 12.8916 16.1787C13.9905 14.2818 15.7166 12.8724 17.7788 12.1779C17.9235 12.5071 18.0433 12.8486 18.1367 13.198C16.3339 13.802 14.8227 15.0257 13.8517 16.6787C12.8523 18.38 12.5298 20.3606 12.9326 22.2839C12.9326 22.284 12.9326 22.2842 12.9326 22.2843C12.9328 22.2853 12.933 22.2861 12.9332 22.2871C12.9403 22.3211 12.9476 22.3551 12.9552 22.3891C12.9669 22.442 12.9782 22.4914 12.9898 22.5389C13.0068 22.6086 13.0248 22.6779 13.0436 22.7469C13.0482 22.7637 13.0532 22.7806 13.0579 22.7974C13.0728 22.851 13.0882 22.9044 13.1041 22.9575C13.109 22.9735 13.114 22.9895 13.119 23.0054C13.1363 23.0614 13.1541 23.1172 13.1725 23.1727C13.1763 23.1839 13.18 23.195 13.1837 23.2061C13.2053 23.2702 13.2277 23.3338 13.2509 23.3971C13.2518 23.3994 13.2525 23.4016 13.2534 23.4039C13.8653 25.0712 15.0138 26.4732 16.5537 27.4098C17.8046 28.1707 19.2093 28.5612 20.6371 28.5612C21.2632 28.5612 21.894 28.486 22.518 28.334C26.7426 27.3048 29.3423 23.0305 28.3132 18.8058C27.8862 17.0533 26.9084 15.5442 25.4855 14.4416C24.1764 13.4272 22.565 12.8461 20.9208 12.7897C20.913 12.7559 20.9051 12.7224 20.8969 12.6891C20.8161 12.3569 20.7172 12.0273 20.6017 11.7038C22.4987 11.6925 24.3682 12.291 25.9187 13.4153C27.6371 14.6611 28.8604 16.4846 29.3636 18.5499C30.5338 23.3539 27.5776 28.2143 22.7737 29.3846Z" fill="white"/>
</g>
<defs>
<clipPath id="clip0_359_3207">
<rect width="29" height="29" fill="white" transform="translate(1.5 1.5)"/>
</clipPath>
</defs>
</svg>
