<svg width="32" height="32" viewBox="0 0 32 32" fill="none" xmlns="http://www.w3.org/2000/svg">
<g clip-path="url(#clip0_237_1642)">
<g clip-path="url(#clip1_237_1642)">
<path d="M31 28.5H30.5V27C30.5 26.8674 30.4473 26.7403 30.3536 26.6465C30.2598 26.5527 30.1326 26.5 30 26.5H29.5V19.487C29.8326 19.238 30.0977 18.9097 30.2711 18.5321C30.4445 18.1545 30.5208 17.7396 30.493 17.325C30.4651 16.9104 30.3341 16.5093 30.1118 16.1583C29.8895 15.8072 29.5829 15.5174 29.22 15.315C28.8571 15.1126 28.4494 15.0042 28.0339 14.9995C27.6184 14.9949 27.2083 15.0942 26.841 15.2884C26.4736 15.4827 26.1607 15.7657 25.9306 16.1117C25.7005 16.4576 25.5606 16.8557 25.5235 17.2695L25.0355 17.7575C22.6391 20.1538 19.3889 21.5 16 21.5C12.6111 21.5 9.36091 20.1538 6.9645 17.7575L6.4765 17.2695C6.43961 16.8555 6.29976 16.4572 6.06968 16.111C5.8396 15.7648 5.5266 15.4816 5.15916 15.2872C4.79171 15.0928 4.38149 14.9934 3.96581 14.998C3.55014 15.0025 3.14221 15.111 2.77914 15.3135C2.41608 15.5159 2.10941 15.806 1.88703 16.1572C1.66466 16.5084 1.53364 16.9097 1.5059 17.3244C1.47815 17.7392 1.55457 18.1543 1.72819 18.532C1.90182 18.9097 2.16713 19.238 2.5 19.487V26.5H2C1.86739 26.5 1.74021 26.5527 1.64645 26.6465C1.55268 26.7403 1.5 26.8674 1.5 27V28.5H1C0.867392 28.5 0.740215 28.5527 0.646447 28.6465C0.552678 28.7403 0.5 28.8674 0.5 29V31C0.5 31.1327 0.552678 31.2598 0.646447 31.3536C0.740215 31.4474 0.867392 31.5 1 31.5H31C31.1326 31.5 31.2598 31.4474 31.3536 31.3536C31.4473 31.2598 31.5 31.1327 31.5 31V29C31.5 28.8674 31.4473 28.7403 31.3536 28.6465C31.2598 28.5527 31.1326 28.5 31 28.5ZM26.5 28.5V27.5H29.5V28.5H26.5ZM6 26.5H5.5V20.207L6.2575 20.9645C8.84138 23.5484 12.3459 25 16 25C19.6541 25 23.1586 23.5484 25.7425 20.9645L26.5 20.207V26.5H26C25.8674 26.5 25.7402 26.5527 25.6464 26.6465C25.5527 26.7403 25.5 26.8674 25.5 27V28.5H6.5V27C6.5 26.8674 6.44732 26.7403 6.35355 26.6465C6.25979 26.5527 6.13261 26.5 6 26.5ZM28.5 26.5H27.5V19.95C27.8299 20.0174 28.1701 20.0174 28.5 19.95V26.5ZM28 16C28.2967 16 28.5867 16.088 28.8334 16.2528C29.08 16.4177 29.2723 16.6519 29.3858 16.926C29.4993 17.2001 29.5291 17.5017 29.4712 17.7927C29.4133 18.0837 29.2704 18.3509 29.0607 18.5607C28.8509 18.7705 28.5836 18.9133 28.2926 18.9712C28.0017 19.0291 27.7001 18.9994 27.426 18.8859C27.1519 18.7723 26.9176 18.5801 26.7528 18.3334C26.588 18.0867 26.5 17.7967 26.5 17.5C26.5 17.1022 26.658 16.7207 26.9393 16.4394C27.2206 16.1581 27.6022 16 28 16ZM16 22.5C17.8023 22.5049 19.5879 22.1537 21.2541 21.4665C22.9204 20.7794 24.4345 19.7699 25.7095 18.496C25.8172 18.7365 25.9624 18.9584 26.1395 19.1535L25.0355 20.2575C22.6391 22.6538 19.3889 24 16 24C12.6111 24 9.36091 22.6538 6.9645 20.2575L5.8605 19.1535C6.03763 18.9584 6.18276 18.7365 6.2905 18.496C7.56553 19.7699 9.07963 20.7794 10.7459 21.4665C12.4121 22.1537 14.1977 22.5049 16 22.5ZM4 16C4.29667 16 4.58668 16.088 4.83336 16.2528C5.08003 16.4177 5.27229 16.6519 5.38582 16.926C5.49935 17.2001 5.52906 17.5017 5.47118 17.7927C5.4133 18.0837 5.27044 18.3509 5.06066 18.5607C4.85088 18.7705 4.58361 18.9133 4.29264 18.9712C4.00166 19.0291 3.70006 18.9994 3.42597 18.8859C3.15189 18.7723 2.91762 18.5801 2.7528 18.3334C2.58797 18.0867 2.5 17.7967 2.5 17.5C2.5 17.1022 2.65804 16.7207 2.93934 16.4394C3.22064 16.1581 3.60218 16 4 16ZM3.5 19.95C3.82993 20.0174 4.17007 20.0174 4.5 19.95V26.5H3.5V19.95ZM2.5 27.5H5.5V28.5H2.5V27.5ZM30.5 30.5H1.5V29.5H30.5V30.5Z" fill="white"/>
<path d="M15.5915 18.2876C15.6377 18.353 15.6989 18.4064 15.77 18.4432C15.8411 18.48 15.92 18.4993 16 18.4993C16.0801 18.4993 16.159 18.48 16.2301 18.4432C16.3011 18.4064 16.3624 18.353 16.4085 18.2876L17.813 16.2931C19.7257 15.848 21.4078 14.7151 22.5391 13.11C23.6704 11.5048 24.1718 9.53968 23.9478 7.58877C23.7238 5.63785 22.7901 3.83746 21.3245 2.53047C19.8589 1.22349 17.9638 0.501221 16 0.501221C14.0363 0.501221 12.1411 1.22349 10.6755 2.53047C9.20991 3.83746 8.2762 5.63785 8.05223 7.58877C7.82825 9.53968 8.32965 11.5048 9.46094 13.11C10.5922 14.7151 12.2744 15.848 14.187 16.2931L15.5915 18.2876ZM9.00002 8.50008C9.00025 7.17632 9.37583 5.87976 10.0832 4.76084C10.7905 3.64192 11.8007 2.7465 12.9963 2.17848C14.192 1.61046 15.5243 1.39313 16.8385 1.55169C18.1527 1.71026 19.3951 2.23823 20.4213 3.07434C21.4476 3.91045 22.2158 5.02042 22.6367 6.27548C23.0576 7.53053 23.1141 8.87921 22.7994 10.165C22.4848 11.4509 21.812 12.6211 20.8592 13.54C19.9063 14.4589 18.7124 15.0888 17.416 15.3566C17.2915 15.3816 17.1812 15.4532 17.1075 15.5566L16 17.1316L14.8925 15.5586C14.8188 15.4552 14.7085 15.3836 14.584 15.3586C13.008 15.0289 11.5931 14.1676 10.5765 12.919C9.55987 11.6703 9.00329 10.1102 9.00002 8.50008Z" fill="white"/>
<path d="M18.2302 12.4375C18.3123 12.483 18.4055 12.5044 18.4992 12.4993C18.593 12.4942 18.6833 12.4628 18.7601 12.4088C18.8368 12.3548 18.8968 12.2802 18.9331 12.1937C18.9695 12.1072 18.9808 12.0122 18.9657 11.9195L18.5342 9.27404L20.3582 7.40504C20.4224 7.33924 20.4672 7.25701 20.4877 7.16739C20.5082 7.07776 20.5036 6.98422 20.4744 6.89704C20.4452 6.80986 20.3926 6.73242 20.3222 6.67323C20.2519 6.61404 20.1665 6.57539 20.0757 6.56154L17.5757 6.17954L16.4527 3.78754C16.4123 3.70164 16.3483 3.62901 16.2682 3.57813C16.188 3.52726 16.0951 3.50024 16.0002 3.50024C15.9052 3.50024 15.8123 3.52726 15.7322 3.57813C15.652 3.62901 15.588 3.70164 15.5477 3.78754L14.4247 6.17954L11.9247 6.56154C11.8338 6.57539 11.7485 6.61404 11.6781 6.67323C11.6078 6.73242 11.5551 6.80986 11.5259 6.89704C11.4967 6.98422 11.4921 7.07776 11.5126 7.16739C11.5331 7.25701 11.5779 7.33924 11.6422 7.40504L13.4662 9.27404L13.0347 11.9195C13.0195 12.0122 13.0308 12.1072 13.0672 12.1937C13.1035 12.2802 13.1635 12.3548 13.2402 12.4088C13.317 12.4628 13.4074 12.4942 13.5011 12.4993C13.5948 12.5044 13.688 12.483 13.7702 12.4375L16.0002 11.205L18.2302 12.4375ZM14.1872 11.064L14.4937 9.18604C14.5062 9.10884 14.5005 9.02976 14.477 8.95517C14.4535 8.88057 14.4128 8.81254 14.3582 8.75654L13.0377 7.40304L14.8377 7.12804C14.9188 7.1156 14.9957 7.08337 15.0614 7.03419C15.1272 6.985 15.1798 6.92039 15.2147 6.84604L16.0002 5.17704L16.7837 6.84604C16.8185 6.92039 16.8711 6.985 16.9369 7.03419C17.0026 7.08337 17.0795 7.1156 17.1607 7.12804L18.9607 7.40304L17.6402 8.75654C17.5855 8.81254 17.5448 8.88057 17.5213 8.95517C17.4978 9.02976 17.4921 9.10884 17.5047 9.18604L17.8112 11.064L16.2402 10.196C16.1661 10.1551 16.0828 10.1336 15.9982 10.1336C15.9135 10.1336 15.8302 10.1551 15.7562 10.196L14.1872 11.064Z" fill="white"/>
</g>
</g>
<defs>
<clipPath id="clip0_237_1642">
<rect width="32" height="32" fill="white"/>
</clipPath>
<clipPath id="clip1_237_1642">
<rect width="32" height="32" fill="white"/>
</clipPath>
</defs>
</svg>
